/* XPM */
static char *col_32[] = {
/* columns rows colors chars-per-pixel */
"32 32 81 1 ",
"  c #221119",
". c #24121A",
"X c #35201E",
"o c #36211F",
"O c #37221F",
"+ c #473024",
"@ c #473025",
"# c #9F7739",
"$ c #9F773A",
"% c #9F773B",
"& c #9F783A",
"* c #9F783B",
"= c #AE843E",
"- c #AF843E",
"; c #AE843F",
": c #AF843F",
"> c #AF853F",
", c #B78D43",
"< c #B78D44",
"1 c #B88D44",
"2 c #B88E44",
"3 c #B7904D",
"4 c #B7904E",
"5 c #B8904E",
"6 c #C69A48",
"7 c #C69A49",
"8 c #C89C48",
"9 c #C89C49",
"0 c #C99C49",
"q c #CA9C49",
"w c #C89C4A",
"e c #CA9D4A",
"r c #C69C50",
"t c #C69C51",
"y c #C69D52",
"u c #C69D53",
"i c #C89E53",
"p c #C99F53",
"a c #C89F54",
"s c #CCA04B",
"d c #CDA14C",
"f c #CDA14D",
"g c #D0A34D",
"h c #C9A054",
"j c #CAA054",
"k c #CDA456",
"l c #CCA65F",
"z c #D0A657",
"x c #CDA761",
"c c #D0A962",
"v c #EFC560",
"b c #F2C761",
"n c #F2C861",
"m c #F8CE64",
"M c #F8CE65",
"N c #F9CF65",
"B c #F9CF66",
"V c #F9CF67",
"C c #FFD569",
"Z c #FFD66B",
"A c #F8D16E",
"S c #F8D16F",
"D c #F9D16F",
"F c #F9D270",
"G c #FFD873",
"H c #FFD974",
"J c #EFDBAE",
"K c #EFDBAF",
"L c #F2DEB0",
"P c #F2DEB2",
"I c #F8E4B3",
"U c #F8E4B4",
"Y c #F9E5B4",
"T c #F8E7BD",
"R c #F8E7BE",
"E c #FFEBB8",
"W c #FFECB8",
"Q c #F9E8BF",
"! c #F9E8C0",
"~ c #FFF1CC",
"^ c None",
/* pixels */
"^^^^^^^^^^^^^^^^^^^^^^^^^^^^^^^^",
"^^^^^^^^^^^^^^^^^^^^^^^^^^^^^^^^",
"^^^^^^^^^^^^^^^^^^^^^^^^^^^^^^^^",
"^^^^^^^^^^^^^^^^^^^^^^^^^^^^^^^^",
"^^^^^^^^^^^^^^^^^^^^^^^^^^^^^^^^",
"^^^^^^^^^^^^^^^^^^^^^^^^^^^^^^^^",
"^^^^^^^^^^^^........^^^^^^^^^^^^",
"^^^^^^^^^^^^OOOOOOOO^^^^^^^^^^^^",
"^^^^^^^^^^ O&;;;==,*O ^^^^^^^^^^",
"^^^^^^^^^^O@3haaur7<+O^^^^^^^^^^",
"^^^^^^^^ O#3JRRRRUFv,#O ^^^^^^^^",
"^^^^^^^^O@3xQ~QRRUHmk3@O^^^^^^^^",
"^^^^^^.O#3JQ~QxrukVGUK5&O.^^^^^^",
"^^^^^^.O;aR~QLlr7enFEUi>O.^^^^^^",
"^^^^^^.O;aR!xlLUDnsfDDw;O.^^^^^^",
"^^^^^^.O;iIIrrUWGm76mmw;O.^^^^^^",
"^^^^^^.O;wAA77DGZm66mmw=X ^^^^^^",
"^^^^^^.O;7ADfsbmmnssmmw,O ^^^^^^",
"^^^^^^.O;jUEDbf66snVZmw;O ^^^^^^",
"^^^^^^.O&5LUGmf76smZmv<#X ^^^^^^",
"^^^^^^^^O@3kmZmmmVZmg2+O^^^^^^^^",
"^^^^^^^^ O&,bmmmmmmv2&O ^^^^^^^^",
"^^^^^^^^^^O+2w8wwwq2+O^^^^^^^^^^",
"^^^^^^^^^^ O&;;;;;>&O ^^^^^^^^^^",
"^^^^^^^^^^^^OOOOOOOO^^^^^^^^^^^^",
"^^^^^^^^^^^^........^^^^^^^^^^^^",
"^^^^^^^^^^^^^^^^^^^^^^^^^^^^^^^^",
"^^^^^^^^^^^^^^^^^^^^^^^^^^^^^^^^",
"^^^^^^^^^^^^^^^^^^^^^^^^^^^^^^^^",
"^^^^^^^^^^^^^^^^^^^^^^^^^^^^^^^^",
"^^^^^^^^^^^^^^^^^^^^^^^^^^^^^^^^",
"^^^^^^^^^^^^^^^^^^^^^^^^^^^^^^^^"
};
