/* XPM */
static char *exit_32[] = {
/* columns rows colors chars-per-pixel */
"32 32 135 2 ",
"   c #241118",
".  c #241218",
"X  c #241219",
"o  c #25131A",
"O  c #26141B",
"+  c #26151C",
"@  c #27151D",
"#  c #29161C",
"$  c #29161D",
"%  c #29171D",
"&  c #2A171D",
"*  c #28151E",
"=  c #2F191D",
"-  c #2F191E",
";  c #2F1A1E",
":  c #301A1E",
">  c #2F1F26",
",  c #2F1F27",
"<  c #341E22",
"1  c #302027",
"2  c #302028",
"3  c #302128",
"4  c #312129",
"5  c #312229",
"6  c #31232B",
"7  c #32222A",
"8  c #32242C",
"9  c #33262D",
"0  c #36262D",
"q  c #34262E",
"w  c #34272F",
"e  c #35272F",
"r  c #36282F",
"t  c #37282F",
"y  c #382134",
"u  c #3A2337",
"i  c #372830",
"p  c #392A32",
"a  c #3E2D31",
"s  c #3B2D35",
"d  c #3D253C",
"f  c #3D2F38",
"g  c #3F333B",
"h  c #3F333C",
"j  c #473137",
"k  c #4A343A",
"l  c #4C363C",
"z  c #4D363C",
"x  c #4E373C",
"c  c #51383A",
"v  c #52393C",
"b  c #533A3C",
"n  c #533A3D",
"m  c #784E3E",
"M  c #784E3F",
"N  c #7E513F",
"B  c #423941",
"V  c #533C40",
"C  c #573D40",
"Z  c #573E40",
"A  c #583E41",
"S  c #583F41",
"D  c #593F41",
"F  c #544147",
"G  c #57454C",
"H  c #60494D",
"J  c #784F40",
"K  c #794F40",
"L  c #7E5240",
"P  c #7F5341",
"I  c #7D5344",
"U  c #7E5444",
"Y  c #624D50",
"T  c #66585F",
"R  c #805543",
"E  c #835644",
"W  c #835744",
"Q  c #835745",
"!  c #845745",
"~  c #895A45",
"^  c #8A5A45",
"/  c #8A5B45",
"(  c #8C6453",
")  c #886354",
"_  c #886355",
"`  c #8E6755",
"'  c #787581",
"]  c #83828E",
"[  c #84828F",
"{  c #84838F",
"}  c #848390",
"|  c #858490",
" . c #868591",
".. c #868592",
"X. c #868692",
"o. c #888692",
"O. c #878894",
"+. c #878895",
"@. c #898A97",
"#. c #8C8C98",
"$. c #8F909D",
"%. c #9193A0",
"&. c #9295A2",
"*. c #9396A3",
"=. c #9497A4",
"-. c #9497A5",
";. c #9498A5",
":. c #909CA8",
">. c #909CA9",
",. c #979CA9",
"<. c #9BA4AD",
"1. c #9BA9B6",
"2. c #9CAAB7",
"3. c #9DABB9",
"4. c #9EAEBB",
"5. c #9EAEBC",
"6. c #9FAFBC",
"7. c #A6B1BB",
"8. c #A0B0BE",
"9. c #A2B1BE",
"0. c #A4B3C0",
"q. c #A4B4C1",
"w. c #A5B4C2",
"e. c #A7B7C5",
"r. c #A9B6C0",
"t. c #AAB6C0",
"y. c #A8B8C6",
"u. c #AABCC9",
"i. c #AABCCA",
"p. c #AABDCA",
"a. c #ABBDCB",
"s. c #ABBECC",
"d. c #ABBFCD",
"f. c #ACC0CE",
"g. c #AFC3D1",
/* pixels */
"o o o o o o o   o o   o o o o o o o o o                   O   O ",
"o o o O > 4 4 4 4 4 , 4 4 , 4 4 , 4 4 , 5 5 5 5 5 5 5 5 + O O   ",
"o o o > ' } [ [ } } ] ] } } } } } } } } } ] } } } } } ' ,   O   ",
"o + > f @.*.....#.&.=.&...} } } } } } ..=.=.$.$.....=.+.f , + O ",
"o , ' +.e.3.g s } =.y.3.h < 4 4 4 , , j 3.y.=.} s h 3.e.@.' ,   ",
"  4 } *.3.:.8 < } =.a.6.p & : : = < & p 6.a.=.] , 6 :.3.=.} 4   ",
"o 4 } ..h w O 5 [ =.a.8.G x J L M M c G 8.a.=.} 4 O 6 h O.} 4   ",
"  4 O.O.4   + w } =.a.w.T Y ) ` ` ) Y T w.a.=.} w +   5 O.+.6   ",
"  w 1.1.w & j F o.=.u.d.w.w.7.t.t.7.w.w.d.u.*.o.F k & w 1.1.w o ",
"o w 6.6.w & c H #.,.p.d.6.4.6.6.6.5.5.6.d.u.,.#.H c & w 4.6.w   ",
"o w 6.6.w : M ) 7.d.g.8.B w w w w w w B 6.g.d.7.) M = w 5.5.w   ",
"  w 6.6.w : N ( <.4.6.:.w & = : : : & i :.6.4.<.( N : w 5.4.w   ",
"  w 6.5.w : L R a w w i k v J L R J b k i w w a R N : w 5.5.w o ",
"o w 4.6.w : L L < & : < x A ! ~ ~ ! A x < : & < R N = w 5.5.w   ",
"  w 4.4.w : L E b v J J A A ! ~ ~ E A A J J b b W N : w 5.5.w o ",
"  w 4.4.w : L ! A A ! ! A A E ~ ~ ! A A ! ! A A ! N : w 5.5.w   ",
"o w 5.5.w : N ! C D W W Z Z W ~ ~ E A A ! E A A ! L : w 6.6.w   ",
"o 0 5.5.w : N W D C W W Z C W ~ ~ E A A E ! A A E L : w 6.6.w   ",
"  w 5.5.w : R W C D W W Z D W ~ ~ E A A E E A A ! L = w 6.6.w o ",
"  w 1.1.w : M W C D W W D Z W ~ ~ E A A ! E A A ! L : w 1.1.w   ",
"o 7 o.@.6 < K ! D D W W Z D W ~ ~ E A A E E A A ! N : 4 o.O.4 o ",
"  , @.o., : R W C D W W Z Z W ~ ~ E A A E ! A A ! R : 4 O.O.4 o ",
"o w 3.1.6 & R ! Z D W W Z Z W ^ ~ E A A ! E A A ! L : w 1.1.w o ",
"  w 1.1.y < J R Z D K R C C R W ! I C A L I A C I M & w 1.1.w   ",
"o 4 O.O.5 & v A V V D D V V C C Z Z V V C C V V A b + 5 +.O.5   ",
"o , } } h w k x k k x k x x k j k k k j k k k j x k i h O.} 5   ",
"o 5 } =.3.>.w & > @ o > < > o > < O < > < @ > > & e >.3.=.} 5   ",
"o < ' @.y.3.h , , , , , > > > , , , , , , , , , , j 3.y.@.' ,   ",
"o O > s @.=.O.} | { | { | { | { X.| | { } } } } } X.=.@.f , + O ",
"> O   > ' } } } X.X.{ | { | { { | | { | X.X.} } } } } ' ,   > + ",
"y y >   , 4 , 4 , , > > , , > > , , , , , , , > , , , ,     y y ",
"u y O o o o   o           >     > o o O           >       > u u "
};
