/* XPM */
static char *floor_32[] = {
/* columns rows colors chars-per-pixel */
"32 32 15 1 ",
"  c #362030",
". c #372031",
"X c #372132",
"o c #382133",
"O c #382234",
"+ c #392235",
"@ c #3A2336",
"# c #3A2337",
"$ c #3B2337",
"% c #3B2338",
"& c #3B2438",
"* c #3B2439",
"= c #3C243A",
"- c #3C253A",
"; c #3D253B",
/* pixels */
";;;;;;;;OO;;;;;;;;;;;;;;;;;;;;;;",
";;;;;;;;O.O;;;;OO;;;;;;;;;;;;;;;",
";;;;;;;;;O;;;;;.O;;;;;;;;;;;OO;;",
";;;;;;;;;;;;;;;O;;;;;;;;;;;O.o;;",
";;;..;;;;;;;;;;;;;;;;;;;;;;;%;;;",
";;;..;;;;;;;;;;;;;;;;..*;;;;;;;;",
";;;;*;;;;;;;;;;;;;;;*..;;;;;;;;;",
";;;;;;;;;;;O.o;;;;;;;;;;;;;;;;;;",
";;;;;;;;;;;% O;;;;;;;;;;;;;;;;;;",
";;;;;;;;;;;;;;;;;;;;;;;;;;;;;;;;",
";;;;;;;;;;;;;;;;;;;;;;;;;;OoO;;;",
";;;;;;%%;;;;;;;;;;OO;;;;;;*.O;;;",
";;;;;;..;;;;;;;;;;..;;;;;;;O;;;;",
";;;;;*OO;;;;;;;;;;OO;;;;;;;;;;;;",
";;;;;;;;;;O;;;;;;;;;;;;;;;;;;;;;",
";;;;;;;;;O.O;;;;;;;;;;o.;;;;;;;;",
";;;;;;;;;;OO;;;;;;;;;;o O;;;;;;;",
";;;;;;;;;;;;;;;;;;;;;;;;;;;;;;;;",
";;%oO;;;;;;;;;;;;;;;;;;;;;;;;;;;",
";;;.O;;;;;;;;O;;;;;;;;;;OO;;;;;;",
";;;OO;;;;;;;oo;;;;;;;;;O.O;;;;;;",
";;;;;;;;;;;;OO;;;;;;;;;;OO;;;;;;",
";;;;;;;;;;;;;;;;;;;;;;;;;;;;;;;;",
";;;;;;;;;;;;;;;;;;oo;;;;;;;oO;;;",
";;;;;;;;;;;;;;;;;;oo;;;;;;;.O;;;",
";;;;;;;;;O.O;;;;;;;;;;;;;;;;;;;;",
";;;;;;;;;O.O;;;;;;;;;;;;;;;;;;;;",
";;;;;;;;;;;;;;;;;;;;;;;;;;;;;;;;",
";;.O;;;;;;;;;;;;;;;;;;;O;;;;O.O;",
";O.O;;;;;;;;;;O;;;;;;;O.o;;;*.O;",
";;;;;;;;;;;;; .;;;;;;;;OO;;;;;;;",
";;;;;;;;;;;;;o.;;;;;;;;;;;;;;;;;"
};
