/* XPM */
static char *be6a18ed7f7649b686387d43bbbffc3dz3iw3PH0eR7y6FFC[] = {
/* columns rows colors chars-per-pixel */
"32 32 108 2 ",
"   c None",
".  c #241118",
"X  c #2D2530",
"o  c #2C242F",
"O  c #241017",
"+  c #2B232E",
"@  c #568CAE",
"#  c #2C232E",
"$  c #333543",
"%  c #5D9EC4",
"&  c #5C9DC3",
"*  c #393844",
"=  c #332730",
"-  c #558CAE",
";  c #60A8D1",
":  c #69AED5",
">  c #93BAD0",
",  c #91B7CD",
"<  c #629FC3",
"1  c #5B9ABF",
"2  c #63ADD6",
"3  c #71B3D8",
"4  c #A0CEE6",
"5  c #6BB2D9",
"6  c #5C9BC1",
"7  c #5B99BE",
"8  c #99CAE4",
"9  c #A8D1E6",
"0  c #A0CDE4",
"q  c #6AB0D7",
"w  c #72B4D9",
"e  c #71B4D8",
"r  c #323342",
"t  c #5B9BC0",
"y  c #63A0C3",
"u  c #98C8E1",
"i  c #A7D0E5",
"p  c #A8D2E8",
"a  c #63ACD6",
"s  c #98BBCF",
"d  c #99BDD0",
"f  c #629DC0",
"g  c #61ABD4",
"h  c #342831",
"j  c #8DAABC",
"k  c #393743",
"l  c #33272F",
"z  c #A2D0E7",
"x  c #68ADD3",
"c  c #2F2B38",
"v  c #2A1E28",
"b  c #291C26",
"n  c #302C39",
"m  c #A8D3E9",
"M  c #92B9CF",
"N  c #4D6885",
"B  c #537797",
"V  c #5A95B9",
"C  c #26151C",
"Z  c #38323D",
"A  c #2F2835",
"S  c #537899",
"D  c #5A89AE",
"F  c #61A7D0",
"G  c #527798",
"H  c #302A37",
"J  c #26141C",
"K  c #413C46",
"L  c #9BBFD2",
"P  c #9FC9DF",
"I  c #5B7C9B",
"U  c #537898",
"Y  c #61A2CA",
"T  c #609EC6",
"R  c #547A9B",
"E  c #4C6784",
"W  c #8BA8BA",
"Q  c #5F85A7",
"!  c #5882A6",
"~  c #61A3CC",
"^  c #27161D",
"/  c #537495",
"(  c #57799C",
")  c #586589",
"_  c #586286",
"`  c #586387",
"'  c #535B7C",
"]  c #61A4CC",
"[  c #596B90",
"{  c #525A7B",
"}  c #241117",
"|  c #517292",
" . c #515575",
".. c #515070",
"X. c #4B4865",
"o. c #291821",
"O. c #4B4864",
"+. c #2A1A24",
"@. c #2B1F2A",
"#. c #302734",
"$. c #2B202A",
"%. c #4D6986",
"&. c #5A96BA",
"*. c #62AAD3",
"=. c #62ABD4",
"-. c #312B38",
";. c #312E3C",
":. c white",
/* pixels */
"                                                                ",
"                                                                ",
"                            . .                                 ",
"                            X o                                 ",
"                        O + @ @ # O . .                         ",
"                        + $ % & * = X #                         ",
"                    . o - & ; : > , < - # O                     ",
"                    . X 1 2 : 3 4 4 5 6 $ +                     ",
"                . . . + 7 : 8 4 9 0 q ; 6 - # O                 ",
"                X X + $ < w 4 9 9 0 e q 2 & r #                 ",
"            . o - t 7 y u 4 i p 9 9 4 u q ; & @ o .             ",
"            = * & a a : > s d s s s s , f & g 1 X .             ",
"        . h j > : g a & k l h = h h l = o $ & 6 X .             ",
"        . h d z 3 x & - c v + + # + + + b n @ - + .             ",
"        . h d m 4 M k c N B V 7 7 7 7 V B N n + C .             ",
"        . h j d i d Z A S D F a a a a F D G H b C J             ",
"            = K L P I U Y F g g a a g ; F T R E v .             ",
"            . l W , Q ! % Y Y Y 1 6 ; g ~ % U E v J             ",
"            . ^ l Z / ( ) _ ` ' H $ & ] [ { = v C .             ",
"            C . } v | (  .....X.o.# 1 Y ' O.+.J . J             ",
"                . @./ / #.o.+.o.. o 1 6 H o.. . J .             ",
"                . @.N N H v # X # $ & & r # $.v C J             ",
"                    v H %.U &.1 1 & *.*.& V U N v .             ",
"                    . v E R y *.=.; 6 6 ] Y U N @..             ",
"                        @.-.U D ; & r ;.R U -.@.                ",
"                        O @.E U &.- # @.N N v .                 ",
"                            @.$.# o     @.@.                    ",
"                            . . . .     . .                     ",
"                                                                ",
"                                                                ",
"                                                                ",
"                                                                "
};
