/* XPM */
static char *wall_32[] = {
/* columns rows colors chars-per-pixel */
"32 32 120 2 ",
"   c #25131A",
".  c #26141B",
"X  c #27151D",
"o  c #28161D",
"O  c #28151E",
"+  c #29161E",
"@  c #2A171E",
"#  c #2A1721",
"$  c #2B1821",
"%  c #2B1822",
"&  c #2D1921",
"*  c #2C1924",
"=  c #2D1925",
"-  c #351F30",
";  c #372133",
":  c #3A2337",
">  c #3B2338",
",  c #3B2438",
"<  c #3C2438",
"1  c #3C2538",
"2  c #3D2538",
"3  c #3C243A",
"4  c #3D253B",
"5  c #3E263B",
"6  c #3F273B",
"7  c #3E263C",
"8  c #3F263C",
"9  c #3F273C",
"0  c #3F263D",
"q  c #40273C",
"w  c #40273D",
"e  c #40273E",
"r  c #402A38",
"t  c #432B3B",
"y  c #41283D",
"u  c #42283D",
"i  c #452B3F",
"p  c #452D3C",
"a  c #452E3C",
"s  c #462E3C",
"d  c #452D3E",
"f  c #452E3F",
"g  c #482F3F",
"h  c #4D323C",
"j  c #4E323C",
"k  c #4F333C",
"l  c #50343F",
"z  c #51353F",
"x  c #422840",
"c  c #4A2E47",
"v  c #4B2F47",
"b  c #4A2E48",
"n  c #4B2F49",
"m  c #4C2F49",
"M  c #4D2F49",
"N  c #483040",
"B  c #4B3240",
"V  c #4B3241",
"C  c #4F3248",
"Z  c #4F3249",
"A  c #4D304A",
"S  c #4D304B",
"D  c #4E304A",
"F  c #4E304B",
"G  c #523541",
"H  c #533640",
"J  c #533740",
"K  c #533641",
"L  c #543740",
"P  c #553841",
"I  c #583A42",
"U  c #503248",
"Y  c #503249",
"T  c #50324A",
"R  c #51324A",
"E  c #51334A",
"W  c #52334B",
"Q  c #52344B",
"!  c #573653",
"~  c #573655",
"^  c #583655",
"/  c #593756",
"(  c #5A3853",
")  c #5A3954",
"_  c #5B3954",
"`  c #5B3955",
"'  c #5C3954",
"]  c #5C3A55",
"[  c #5D3A55",
"{  c #674448",
"}  c #6A4748",
"|  c #6B4849",
" . c #6B484A",
".. c #6E4A48",
"X. c #6F4B49",
"o. c #6C484A",
"O. c #6D484A",
"+. c #6F4A4D",
"@. c #6E494E",
"#. c #6E4A4E",
"$. c #6F4A4E",
"%. c #704B49",
"&. c #704C49",
"*. c #704C4A",
"=. c #704A4F",
"-. c #724C4D",
";. c #724C4E",
":. c #724D4E",
">. c #734D4E",
",. c #734D4F",
"<. c #744E4D",
"1. c #744E4F",
"2. c #76504E",
"3. c #77504E",
"4. c #77514E",
"5. c #78514E",
"6. c #78514F",
"7. c #79514F",
"8. c #744E50",
"9. c #754E50",
/* pixels */
"/ / F F / / / / ) / / / / / ) ~ F n n A M M n m m m M M M M M M ",
"~ ! U U ) ' ' ' ' ) ) ) ' ' ' ( A n v A U U U U W U U U A U M M ",
"A U { } o.o.o.o.o. .o.o.$.o.1.$.x u v A $.,.} } } } } } } { A M ",
"n U o.&.&.&.&.o.X.X.&.&.o.&.5.,.d 0 v E ,.6.&.%.o.&.%.%.%. .U M ",
"M U ,.5.3.5.5.3.6.9.5.5.3.3.3.,.U n n U 9.6.3.3.3.1.3.3.3.,.U M ",
"F Q $.9.1.1.1.1.9.9.9.9.9.9.9.,.U M M W $.8.9.9.,.,.,.8.,.$.U n ",
"/ ~ Q Q ' ' ' ' [ ' ' ' ' ' ' ) A M M M A U U U U U W W W U M M ",
"~ ! U U ' ' ' ' ' ' ' ' ' ) ) ( U U U U U U U W U U U U U U M M ",
"A U {  .o.o.o.o.o.o.o.o. . . . .} } } } } } } }  .} }  .,.$.U v ",
"n U  .%.........................................&.o...%.3.,.U M ",
"A E ,.1.........................................o.....%.3.,.E M ",
"M U ,.5.&.%.%.&.X.X...&.X...%...%.%...%.%...%.%.&.%.%.&.3.,.U M ",
"n U 1.5.5.5.5.5.3.3.5.5.5.5.3.3.3.3.3.3.7.7.5.2.3.3.3.5.6.1.E A ",
"C A o.1.1.3.3.5.<.1.3.5.&.2.3.3.&.3.,.,.5.7.2.2.<.<.1.3.1.$.C v ",
"u u P I I I I I I I I I I I I I I I I I I I z { z I I I I P y 6 ",
"e 6 l L z z z z z z z z P z z P z z z z z z z z z z P z z l 0 0 ",
"6 6 z L L L L L L L L L L L L J z I z z z I z I z z I z I z K C ",
"1 6 l L J L L L L L L L L L L J z z z I z z I z z I z z z z C C ",
"5 8 V V L I J L L L L L L L J J I z I z z z z z I z I z N N 6 0 ",
"1 1 9 g l l z z z z z z z z l H z z z z z z z l z z z z N d 3 3 ",
"= # 1 1 6 6 6 6 9 9 9 9 8 8 8 8 p p 6 6 6 6 y y 6 6 6 6 9 0 3 3 ",
"= # 1 8 6 6 6 6 9 9 9 9 5 5 5 5 6 q 6 0 9 9 y y 6 6 6 y 9 9 0 4 ",
"- 1 f N l z z z z z z z N f 6 6 d N j K l l l z z z z z f f 9 3 ",
"; 5 N V L L L L L z I J h g 1 6 h N K P P P z z z P z K V f : 3 ",
"1 8 l H L L L L I z z I z z 6 6 z z z z z z z z z I z I z k & @ ",
"1 1 l L L L L L z I I z z z 2 2 z z I I z I z z z z z z z z @ o ",
"= % 9 l J J L L z z I z h p & & h j z z I z z I I z z z V h 2 2 ",
"% o 6 g k k h h k k k k p 6 o o 6 p k k z z k k k k z z p r 2 , ",
"    o o & + + & @ @ @ @ o o . . o o @ @ @ @ @ + @ @ + + + + + + ",
"                                                                ",
"                                                                ",
"                      .                                         "
};
